<svg version="1.2" xmlns="http://www.w3.org/2000/svg" viewBox="0 0 256 302" width="410" height="484"><defs><linearGradient id="P" gradientUnits="userSpaceOnUse"/><linearGradient id="g1" x2="1" href="#P" gradientTransform="matrix(101.5,203,-266.217,133.108,41,49.5)"><stop stop-color="#8bff5e"/><stop offset="1" stop-color="#1fd38a"/></linearGradient><linearGradient id="g2" x2="1" href="#P" gradientTransform="matrix(-72.5,217.5,-115.061,-38.354,200.5,64)"><stop stop-color="#00c6ff"/><stop offset="1" stop-color="#1d6bff"/></linearGradient><linearGradient id="g3" x2="1" href="#P" gradientTransform="matrix(101.5,203,-210.25,105.125,41,49.5)"><stop stop-color="#8bff5e"/><stop offset="1" stop-color="#1fd38a"/></linearGradient><linearGradient id="g4" x2="1" href="#P" gradientTransform="matrix(-72.5,217.5,-229.257,-76.419,200.5,64)"><stop stop-color="#00c6ff"/><stop offset="1" stop-color="#1d6bff"/></linearGradient><linearGradient id="g5" x2="1" href="#P" gradientTransform="matrix(-110.2,211.7,-66.608,-34.672,188.9,46.6)"><stop stop-color="#4df07a"/><stop offset=".55" stop-color="#16cba4"/><stop offset="1" stop-color="#1e8cff"/></linearGradient><linearGradient id="g6" x2="1" href="#P" gradientTransform="matrix(-110.2,211.7,-66.608,-34.672,188.9,46.6)"><stop stop-color="#4df07a"/><stop offset=".55" stop-color="#16cba4"/><stop offset="1" stop-color="#1e8cff"/></linearGradient></defs><style>.a{fill:none;stroke:url(#g1);stroke-width:37.7}.b{fill:none;stroke:url(#g2);stroke-width:37.7}.c{fill:url(#g3)}.d{fill:url(#g4)}.e{fill:url(#g5);stroke:url(#g6);stroke-linejoin:round;stroke-width:7.3}</style><path class="a" d="m51.1 227.9c-17.5-17.5-28.5-40.5-31.2-65.1-2.7-24.6 3.1-49.4 16.4-70.2 13.3-20.9 33.3-36.6 56.7-44.6 23.5-7.9 48.9-7.7 72.2 0.8"/><path class="b" d="m195 65.3c20.4 15.9 34.4 38.6 39.6 64 5.2 25.4 1.1 51.8-11.5 74.4-12.5 22.7-32.7 40.1-57 49.2-24.3 9-51 9.2-75.3 0.3"/><path fill-rule="evenodd" class="c" d="m142.5 0.2v26.1h-29v-26.1z"/><path fill-rule="evenodd" class="d" d="m142.5 275.7v26.1h-29v-26.1z"/><path fill-rule="evenodd" class="e" d="m188.9 46.6l-110.2 121.8h43.5l-43.5 89.9 107.3-133.4h-34.8z"/></svg>